<?xml version="1.0" encoding="UTF-8" standalone="no"?>
<!DOCTYPE svg PUBLIC "-//W3C//DTD SVG 1.1//EN"
"http://www.w3.org/Graphics/SVG/1.1/DTD/svg11.dtd">
<svg viewBox="0 0 935 1540" version="1.1" xmlns="http://www.w3.org/2000/svg" xmlns:xlink="http://www.w3.org/1999/xlink">
<defs>
<style type="text/css"><![CDATA[
.g1_2{
fill: #FFFFFF;
}
.g2_2{

}
]]></style>
</defs>
<path fill-rule="evenodd" d="M102.3,395.3l765.2,0l0,682.7l-765.2,0l0,-682.7Z" class="g1_2" />
<path fill-rule="evenodd" d="M100.1,392.7l770,0l0,687.5l-770,0l0,-687.5l2.9,684.6l763.8,0l0,-681.3L103,396l0,681.3L100.1,392.7Z" class="g2_2" />
<path fill-rule="evenodd" d="M101.2,426.1l770,0l0,1.4l-770,0l0,-1.4Z" class="g2_2" />
<path fill-rule="evenodd" d="M101.2,460.5l770,0l0,1.5l-770,0l0,-1.5Z" class="g2_2" />
<path fill-rule="evenodd" d="M101.2,825l770,0l0,1.5l-770,0l0,-1.5Z" class="g2_2" />
<path fill-rule="evenodd" d="M101.2,858.7l770,0l0,1.5l-770,0l0,-1.5Z" class="g2_2" />
<path fill-rule="evenodd" d="M101.2,914.5l770,0l0,1.4l-770,0l0,-1.4Z" class="g2_2" />
<path fill-rule="evenodd" d="M100.1,948.2l771.1,0l0,1.5l-771.1,0l0,-1.5Z" class="g2_2" />
<path fill-rule="evenodd" d="M101.2,495.4l770,0l0,0.7l-770,0l0,-0.7Z" class="g2_2" />
<path fill-rule="evenodd" d="M346.5,1080.2l0,-687.5l1.5,0l0,687.5l-1.5,0Z" class="g2_2" />
<path fill-rule="evenodd" d="M101.2,529.1l770,0l0,1.5l-770,0l0,-1.5Z" class="g2_2" />
<path fill-rule="evenodd" d="M101.2,598.4l770,0l0,1.5l-770,0l0,-1.5Z" class="g2_2" />
<path fill-rule="evenodd" d="M101.2,667l770,0l0,1.4l-770,0l0,-1.4Z" class="g2_2" />
<path fill-rule="evenodd" d="M101.2,701.1l770,0l0,1.4l-770,0l0,-1.4Z" class="g2_2" />
<path fill-rule="evenodd" d="M101.2,735.9l770,0l0,1.5l-770,0l0,-1.5Z" class="g2_2" />
<path fill-rule="evenodd" d="M101.2,790.2l770,0l0,1.8l-770,0l0,-1.8Z" class="g2_2" />
<path fill-rule="evenodd" d="M354.2,465.7l391.2,0l0,24.2l-391.2,0l0,-24.2l1.5,22.7l388.3,0l0,-21.3l-388.3,0l0,21.3l-1.5,-22.7Z" class="g2_2" />
<path fill-rule="evenodd" d="M374,489.5l0,-23.8l1.5,0l0,23.8l-1.5,0Z" class="g2_2" />
<path fill-rule="evenodd" d="M395.6,489.5l0,-23.8l1.5,0l0,23.8l-1.5,0Z" class="g2_2" />
<path fill-rule="evenodd" d="M416.2,489.5l0,-23.8l1.4,0l0,23.8l-1.4,0Z" class="g2_2" />
<path fill-rule="evenodd" d="M436.7,489.5l0,-23.8l1.5,0l0,23.8l-1.5,0Z" class="g2_2" />
<path fill-rule="evenodd" d="M457.6,489.5l0,-23.8l1.5,0l0,23.8l-1.5,0Z" class="g2_2" />
<path fill-rule="evenodd" d="M478.1,489.5l0,-23.8l1.5,0l0,23.8l-1.5,0Z" class="g2_2" />
<path fill-rule="evenodd" d="M498.7,489.5l0,-23.8l1.4,0l0,23.8l-1.4,0Z" class="g2_2" />
<path fill-rule="evenodd" d="M519.2,489.5l0,-23.8l1.5,0l0,23.8l-1.5,0Z" class="g2_2" />
<path fill-rule="evenodd" d="M539,489.5l0,-23.8l1.5,0l0,23.8l-1.5,0Z" class="g2_2" />
<path fill-rule="evenodd" d="M559.5,488.4l0,-22l1.9,0l0,22l-1.9,0Z" class="g2_2" />
<path fill-rule="evenodd" d="M580.4,489.5l0,-23.8l1.5,0l0,23.8l-1.5,0Z" class="g2_2" />
<path fill-rule="evenodd" d="M601,489.5l0,-23.8l1.4,0l0,23.8l-1.4,0Z" class="g2_2" />
<path fill-rule="evenodd" d="M621.5,489.5l0,-23.8l1.5,0l0,23.8l-1.5,0Z" class="g2_2" />
<path fill-rule="evenodd" d="M642,489.5l0,-23.8l1.9,0l0,23.8l-1.9,0Z" class="g2_2" />
<path fill-rule="evenodd" d="M662.9,489.5l0,-23.8l1.5,0l0,23.8l-1.5,0Z" class="g2_2" />
<path fill-rule="evenodd" d="M683.5,489.5l0,-23.8l1.4,0l0,23.8l-1.4,0Z" class="g2_2" />
<path fill-rule="evenodd" d="M704,489.5l0,-23.8l1.5,0l0,23.8l-1.5,0Z" class="g2_2" />
<path fill-rule="evenodd" d="M724.5,489.5l0,-23.8l1.9,0l0,23.8l-1.9,0Z" class="g2_2" />
<path fill-rule="evenodd" d="M354.2,499.4l247.5,0l0,24.2l-247.5,0l0,-24.2l1.5,22.7l244.5,0l0,-20.9l-244.5,0l0,20.9l-1.5,-22.7Z" class="g2_2" />
<path fill-rule="evenodd" d="M373.6,523.2l0,-23.8l1.9,0l0,23.8l-1.9,0Z" class="g2_2" />
<path fill-rule="evenodd" d="M395.6,523.2l0,-23.8l1.5,0l0,23.8l-1.5,0Z" class="g2_2" />
<path fill-rule="evenodd" d="M416.2,523.2l0,-23.8l1.4,0l0,23.8l-1.4,0Z" class="g2_2" />
<path fill-rule="evenodd" d="M436.7,523.2l0,-23.8l1.5,0l0,23.8l-1.5,0Z" class="g2_2" />
<path fill-rule="evenodd" d="M457.2,523.2l0,-23.8l1.9,0l0,23.8l-1.9,0Z" class="g2_2" />
<path fill-rule="evenodd" d="M478.1,523.2l0,-23.8l1.5,0l0,23.8l-1.5,0Z" class="g2_2" />
<path fill-rule="evenodd" d="M498.7,523.2l0,-23.8l1.4,0l0,23.8l-1.4,0Z" class="g2_2" />
<path fill-rule="evenodd" d="M519.2,523.2l0,-23.8l1.5,0l0,23.8l-1.5,0Z" class="g2_2" />
<path fill-rule="evenodd" d="M539,523.2l0,-23.8l1.5,0l0,23.8l-1.5,0Z" class="g2_2" />
<path fill-rule="evenodd" d="M559.5,522.5l0,-22.4l1.5,0l0,22.4l-1.5,0Z" class="g2_2" />
<path fill-rule="evenodd" d="M580.4,523.2l0,-23.8l1.5,0l0,23.8l-1.5,0Z" class="g2_2" />
<path fill-rule="evenodd" d="M101.2,563.2l770,0l0,1.5l-770,0l0,-1.5Z" class="g2_2" />
<path fill-rule="evenodd" d="M101.2,631.8l770,0l0,1.4l-770,0l0,-1.4Z" class="g2_2" />
<path fill-rule="evenodd" d="M348.7,762.3l218.2,0l0,1.5l-218.2,0l0,-1.5Z" class="g2_2" />
<path fill-rule="evenodd" d="M568,763.4l0,-26.8l1.4,0l0,26.8l-1.4,0Z" class="g2_2" />
<path fill-rule="evenodd" d="M540.5,764.1l0,-27.5l1.4,0l0,27.5l-1.4,0Z" class="g2_2" />
<path fill-rule="evenodd" d="M513,763.4l0,-26.8l1.4,0l0,26.8l-1.4,0Z" class="g2_2" />
<path fill-rule="evenodd" d="M485.5,763.4l0,-26.8l1.4,0l0,26.8l-1.4,0Z" class="g2_2" />
<path fill-rule="evenodd" d="M458,763.4l0,-26.8l1.4,0l0,26.8l-1.4,0Z" class="g2_2" />
<path fill-rule="evenodd" d="M430.5,764.1l0,-27.5l1.4,0l0,27.5l-1.4,0Z" class="g2_2" />
<path fill-rule="evenodd" d="M403,764.1l0,-27.5l1.4,0l0,27.5l-1.4,0Z" class="g2_2" />
<path fill-rule="evenodd" d="M374.4,763.4l0,-26.8l1.4,0l0,26.8l-1.4,0Z" class="g2_2" />
<path fill-rule="evenodd" d="M101.2,983l770,0l0,1.5l-770,0l0,-1.5Z" class="g2_2" />
<path fill-rule="evenodd" d="M101.2,1037.7l770,0l0,1.4l-770,0l0,-1.4Z" class="g2_2" />

</svg>